<?xml version="1.0" encoding="utf-8"?>
<!DOCTYPE svg PUBLIC "-//W3C//DTD SVG 1.1//EN" "http://www.w3.org/Graphics/SVG/1.1/DTD/svg11.dtd">
<svg version="1.1" xmlns="http://www.w3.org/2000/svg" xmlns:xlink="http://www.w3.org/1999/xlink" x="0px" y="0px"
    viewBox="0 0 256 256" enable-background="new 0 0 256 256" xml:space="preserve">
    <metadata> Svg Vector Icons : http://www.onlinewebfonts.com/icon </metadata>
    <g>
        <g>
            <g>
                <path fill="#00b8d4"
                    d="M45.2,11.3c-22.1,8.2-27.5,36.8-9.8,52c9.2,7.9,21.9,9.6,33,4.3c9-4.2,15-12.4,17-22.7c2.3-12.6-4.9-26.2-17.2-32.2c-4.3-2.1-5.7-2.4-12-2.5C50.7,9.8,48.3,10.1,45.2,11.3z M65.6,17.7c5,2.2,9.6,7,12.2,12.3c1.6,3.4,1.9,5.2,1.9,10.2c0,5.3-0.3,6.7-2.5,11c-2.8,5.6-6.2,9-11.7,11.5c-12.5,5.8-27.2,0.1-32.9-12.5c-1.9-4.2-2-5.2-1.7-11.1c0.4-7.3,1.8-10.8,6.4-15.9C40.2,20,45.4,17,50,15.8C54.1,14.9,61.2,15.7,65.6,17.7z" />
                <path fill="#00b8d4"
                    d="M45.4,22.7c-4.4,2.4-9,8.6-8.2,11.1c0.8,2.6,3.5,1.8,6.7-1.9c1.6-1.9,3.7-3.7,4.6-4.2c2.2-1,3-3.3,1.8-4.7C49.1,21.6,47.5,21.5,45.4,22.7z" />
                <path fill="#00b8d4"
                    d="M176.8,54c-12.7,2.1-25.4,10.7-31.9,21.4c-1.3,2.3-2.8,3.8-3.3,3.6c-0.5-0.1-3.9-0.9-7.5-1.6c-8.5-1.6-22.5-1.6-31.1,0c-32.1,6.1-58.6,30.8-66.8,62.3c-2.4,9-3.2,24.5-1.9,33.9c1.2,8,5.2,20.4,9.1,27.6c8.5,15.7,23.3,29.8,39,36.9c13.4,6.2,24.7,8.4,40.1,7.7c16.7-0.7,31-5.4,44.6-14.8c24.8-17.2,39.3-48.1,36.3-77.5c-0.4-4.1-1-7.9-1.2-8.5c-0.4-0.8,0.9-1.9,4.6-4c7.3-4,15.6-12.7,19.1-19.8c5.2-10.5,6.4-21.5,3.6-32.4C223.6,65.2,200.7,50.1,176.8,54z M194.2,60.3c7.3,1.9,13.8,5.5,19.1,10.8c8.2,8.2,12,17.3,12,29.2c0,11.3-4.1,21-12.1,28.9c-3.6,3.5-10.6,8.4-11.9,8.4c-0.3,0-1.1-1.8-1.9-4c-5.9-18-20.8-36.6-36.7-45.5c-2.2-1.2-4-2.6-4-3.1c0-1.3,4.5-5.9,8.4-8.6c3.7-2.5,4.4-4.5,2.3-6.2c-1-0.8-1.7-0.7-4.5,0.7c-3.1,1.7-9.6,7.9-11.2,10.8c-0.7,1.2-1,1.3-3,0.4c-1.2-0.5-2.3-1-2.5-1.2c-0.1-0.1,1.3-2.4,3.2-5.1C160.9,62.9,178.7,56.3,194.2,60.3z M137.9,84.2c12.8,3.3,25.2,10,35.2,19.2c9.8,8.9,18.9,24.4,22.7,38.4c1.7,6.6,1.9,8.8,1.9,19.4c0,10.5-0.2,12.9-1.9,19.4c-2.6,9.8-8.9,22.3-15,30c-16.8,20.9-43.6,32.3-69.6,29.5c-19-2-33.8-9-47.6-22.2C20.8,176.6,37.3,104.7,93.8,85.7C107.4,81.2,124,80.6,137.9,84.2z" />
                <path fill="#00b8d4"
                    d="M84.9,99.1c-10.4,5.5-21,15.7-26.8,25.6c-3.6,6.1-4,7.6-2.5,9.1c1.8,1.8,3.5,1,5.4-2.7c5.8-11.1,16.4-21.6,29.5-28.7c2.4-1.3,3-3.4,1.4-4.9C90.7,96.2,90,96.3,84.9,99.1z" />
            </g>
        </g>
    </g>
</svg>