<?xml version="1.0" encoding="utf-8"?>
<!DOCTYPE svg PUBLIC "-//W3C//DTD SVG 1.1//EN" "http://www.w3.org/Graphics/SVG/1.1/DTD/svg11.dtd">
<svg version="1.1" xmlns="http://www.w3.org/2000/svg" xmlns:xlink="http://www.w3.org/1999/xlink" x="0px" y="0px"
    viewBox="0 0 256 256" enable-background="new 0 0 256 256" xml:space="preserve">
    <g>
        <path fill="#8fa4d4"
            d="M141.7,171.8c-10.6,0-19.2-8.6-19.2-19.2c0-10.6,8.6-19.2,19.2-19.2c10.6,0,19.2,8.6,19.2,19.2 C160.9,163.2,152.3,171.8,141.7,171.8z M74.5,100.6c-6.8,0-12.4-5.5-12.4-12.4s5.5-12.4,12.4-12.4c6.8,0,12.4,5.5,12.4,12.4l0,0 C86.9,95.1,81.3,100.6,74.5,100.6z" />
        <path fill="#2351a2"
            d="M74.5,78.6c5.3,0,9.6,4.3,9.6,9.6c0,5.3-4.3,9.6-9.6,9.6c-5.3,0-9.6-4.3-9.6-9.6l0,0 C64.9,82.9,69.2,78.6,74.5,78.6 M141.7,136.2c9.1,0,16.5,7.4,16.5,16.5c0,9.1-7.4,16.5-16.5,16.5c-9.1,0-16.5-7.4-16.5-16.5 C125.3,143.5,132.6,136.2,141.7,136.2L141.7,136.2 M74.5,73.1c-8.3,0-15.1,6.8-15.1,15.1s6.8,15.1,15.1,15.1 c8.3,0,15.1-6.8,15.1-15.1C89.6,79.9,82.8,73.2,74.5,73.1z M141.7,130.7c-12.1,0-22,9.8-22,22c0,12.1,9.8,22,22,22 c12.1,0,22-9.8,22-22C163.7,140.5,153.8,130.7,141.7,130.7z" />
        <path fill="#979797"
            d="M177.4,174.6c-9.1,0-16.5,7.4-16.4,16.5c0,9.1,7.4,16.5,16.5,16.4c9.1,0,16.4-7.4,16.4-16.5 C193.9,182,186.5,174.6,177.4,174.6z M177.4,202c-6.1,0-11-4.9-11-11c0-6.1,4.9-11,11-11c6.1,0,11,4.9,11,11 C188.4,197.1,183.5,202,177.4,202L177.4,202z M36.1,213c6.8,0,12.4-5.5,12.4-12.4s-5.5-12.4-12.4-12.4c-6.8,0-12.4,5.5-12.4,12.4 S29.3,213,36.1,213L36.1,213z M36.1,193.8c3.8,0,6.9,3.1,6.9,6.9c0,3.8-3.1,6.9-6.9,6.9c-3.8,0-6.9-3.1-6.9-6.9l0,0 C29.2,196.9,32.3,193.8,36.1,193.8L36.1,193.8z M207.6,81.4c15.1,0,27.4-12.3,27.4-27.4c0-15.1-12.3-27.4-27.4-27.4 c-15.1,0-27.4,12.3-27.4,27.4C180.2,69.1,192.4,81.4,207.6,81.4z M207.6,32c12.1,0,21.9,9.8,21.9,22c0,12.1-9.8,21.9-22,21.9 c-12.1,0-21.9-9.8-21.9-21.9C185.6,41.8,195.5,32,207.6,32C207.6,32,207.6,32,207.6,32L207.6,32z M191.1,147.2 c12.1,0,21.9-9.8,21.9-22c0-12.1-9.8-21.9-22-21.9c-12.1,0-21.9,9.8-21.9,21.9C169.2,137.4,179,147.2,191.1,147.2z M191.1,108.8 c9.1,0,16.4,7.4,16.4,16.5c0,9.1-7.4,16.4-16.5,16.4c-9.1,0-16.4-7.4-16.4-16.5C174.6,116.2,182,108.8,191.1,108.8 C191.1,108.8,191.1,108.8,191.1,108.8L191.1,108.8z M145.8,78.6c11.4,0,20.6-9.2,20.6-20.6c0-11.4-9.2-20.6-20.6-20.6 c-11.4,0-20.6,9.2-20.6,20.6C125.3,69.4,134.5,78.6,145.8,78.6z M145.8,43c8.3,0,15.1,6.8,15.1,15.1c0,8.3-6.8,15.1-15.1,15.1 c-8.3,0-15.1-6.8-15.1-15.1C130.8,49.7,137.5,43,145.8,43C145.8,43,145.8,43,145.8,43z M97.8,174.6c-10.6,0-19.2,8.6-19.2,19.2 c0,10.6,8.6,19.2,19.2,19.2s19.2-8.6,19.2-19.2C117,183.2,108.4,174.6,97.8,174.6z M97.8,207.5c-7.6,0-13.7-6.1-13.7-13.7 c0-7.6,6.1-13.7,13.7-13.7s13.7,6.1,13.7,13.7C111.5,201.4,105.4,207.5,97.8,207.5L97.8,207.5z M89.6,149.9 c9.1,0,16.5-7.4,16.4-16.5c0-9.1-7.4-16.5-16.5-16.4c-9.1,0-16.4,7.4-16.4,16.5C73.1,142.6,80.5,149.9,89.6,149.9z M89.6,122.5 c6.1,0,11,4.9,11,11c0,6.1-4.9,11-11,11c-6.1,0-11-4.9-11-11C78.6,127.4,83.5,122.5,89.6,122.5z M45.7,170.5 c0,8.3,6.8,15.1,15.1,15.1s15.1-6.8,15.1-15.1c0-8.3-6.8-15.1-15.1-15.1l0,0C52.4,155.4,45.7,162.1,45.7,170.5z M60.8,160.9 c5.3,0,9.6,4.3,9.6,9.6s-4.3,9.6-9.6,9.6c-5.3,0-9.6-4.3-9.6-9.6S55.5,160.9,60.8,160.9L60.8,160.9z M126.6,125.2 c11.4,0,20.6-9.2,20.6-20.6c0-11.4-9.2-20.6-20.6-20.6c-11.4,0-20.6,9.2-20.6,20.6C106.1,116,115.3,125.2,126.6,125.2z M126.6,89.6 c8.3,0,15.1,6.8,15.1,15.1c0,8.3-6.8,15.1-15.1,15.1c-8.3,0-15.1-6.8-15.1-15.1C111.5,96.3,118.3,89.6,126.6,89.6z M44.3,136.2 c6.8,0,12.3-5.6,12.3-12.4s-5.6-12.3-12.4-12.3c-6.8,0-12.3,5.5-12.3,12.3C32,130.7,37.5,136.2,44.3,136.2z M44.3,117 c3.8,0,6.8,3.1,6.8,6.9s-3.1,6.8-6.9,6.8c-3.7,0-6.8-3.1-6.8-6.8C37.5,120.1,40.5,117,44.3,117C44.3,117,44.3,117,44.3,117z" />
    </g>
</svg>