<svg class="svg-icon" style="width: 1em; height: 1em;vertical-align: middle;fill: currentColor;overflow: hidden;" viewBox="0 0 1024 1024" version="1.1" xmlns="http://www.w3.org/2000/svg"><path d="M322.2 597.4l577.6 0 102.2-364.8-150.4 0-54-166.8-225.2 73 30.8 93.8-10.6 0-55.6-166.8-225.2 73 30.8 93.8-120.4 0-25-100c-12.6-50-56.2-85.4-106.4-85.4l-68.8 0 0 41.8 68.8 0c31.2 0 58.4 20.8 66.8 52.2l110.6 432.8c-22.8 16.4-37.8 43.2-37.8 73.8 0 50 41.8 91.8 91.8 91.8l563 0 0-41.8-563 0c-27.2 0-50-23-50-50 0-27.4 23-50.4 50-50.4zm448.4-479.6l37.6 112.6-162.6 0-23-64.6 148-48zm-260.6 0l37.6 112.6-162.6 0-23-64.6 148-48zm437.8 154.4l-79.2 283.6-563 0-73-283.6 715.2 0z"  /><path d="M701.8 801.8c-48 0-87.6 39.6-87.6 87.6 0 48 39.6 87.6 87.6 87.6 50 0 87.6-39.6 87.6-87.6 0-48-39.6-87.6-87.6-87.6zm0 135.6c-27.2 0-48-23-48-48 0-27.2 23-48 48-48 27.2 0 48 20.8 48 48 0 27.2-23 48-48 48z"  /><path d="M380.6 801.8c-48 0-87.6 39.6-87.6 87.6 0 48 39.6 87.6 87.6 87.6 48 0 87.6-39.6 87.6-87.6 0-48-39.6-87.6-87.6-87.6zm0 135.6c-27.2 0-48-23-48-48 0-27.2 23-48 48-48 25 0 48 20.8 48 48 0 27.2-23 48-48 48z"  /></svg>