<?xml version="1.0" encoding="utf-8"?>
<!DOCTYPE svg PUBLIC "-//W3C//DTD SVG 1.1//EN" "http://www.w3.org/Graphics/SVG/1.1/DTD/svg11.dtd">
<svg version="1.1" xmlns="http://www.w3.org/2000/svg" xmlns:xlink="http://www.w3.org/1999/xlink" x="0px" y="0px"
    viewBox="0 0 256 256" enable-background="new 0 0 256 256" xml:space="preserve">
    <metadata> Svg Vector Icons : http://www.onlinewebfonts.com/icon </metadata>
    <g>
        <g>
            <g>
                <path fill="#ffffff"
                    d="M117.7,21.4c-23.8,4.9-40.6,23.2-43.1,47.3c-1.3,11.6,2.4,23.9,14.3,47.9l5.6,11.4H68.2H42l-15.8,52.5c-8.7,28.9-15.9,53.1-16,53.7l-0.2,1.2h118h118l-0.2-1.1c-0.2-0.7-7.4-24.8-16-53.7L214,127.9h-26.2h-26.3l5.6-11.4c6.6-13.2,11.1-24.4,13.1-32.2c4.6-18-2.4-38.5-17.3-51.2c-6-5.1-13.3-8.8-21.7-11.1C136.1,20.7,122.9,20.3,117.7,21.4z M136.1,42.9c8.5,2,16.9,8.8,20.7,16.6c8.8,18.3,0.6,38.6-18.5,45.3c-2,0.8-4.7,1.2-8.7,1.3c-7,0.4-10.3-0.4-16.6-3.4c-14-6.9-20.6-23.9-15.3-39.3c4.1-11.8,13.1-19,26.9-21.3C126.3,41.8,133.4,42.2,136.1,42.9z M111.9,156.5c4.1,6.8,13.9,22.1,15.4,24c0.4,0.6,0.9,0.9,1,0.8c0.8-0.9,12-18.3,15.7-24.3l4.4-7.4l22.2,0.1l22.2,0.2l10.5,31.5c5.7,17.3,10.5,31.8,10.5,32.1c0,0.5-17.2,0.7-85.7,0.7c-68.5,0-85.7-0.2-85.7-0.7c0-0.5,19.7-59.9,20.9-63.2c0.2-0.5,5.1-0.6,22.3-0.6h22.1L111.9,156.5z" />
            </g>
        </g>
    </g>
</svg>