<?xml version="1.0" encoding="utf-8"?>
<!DOCTYPE svg PUBLIC "-//W3C//DTD SVG 1.1//EN" "http://www.w3.org/Graphics/SVG/1.1/DTD/svg11.dtd">
<svg version="1.1" xmlns="http://www.w3.org/2000/svg" xmlns:xlink="http://www.w3.org/1999/xlink" x="0px" y="0px"
    viewBox="0 0 256 256" enable-background="new 0 0 256 256" xml:space="preserve">
    <g>
        <g>
            <g>
                <path fill="#000000"
                    d="M89.2,86.3c-6,1.3-11.1,5.2-13.8,10.5L74,99.7l-5.1,1.7c-2.9,1-5.6,2-6.2,2.3c-1,0.5-1.6,0.3-5.3-1.6c-7.7-3.9-13.2-4.5-18.5-2c-3.7,1.8-3.7,1.8-4.1,5.8c-0.2,2-0.8,4.4-1.3,5.4c-0.5,1-1.3,2.4-1.8,3.2c-1.1,2.1-0.6,3.6,2,5.8l2.2,1.8l6.6,0.3c3.6,0.1,6.8,0.5,7.1,0.8c0.3,0.3-0.2,1.9-1.9,5.1c-3.4,6.4-3.3,8.1,0,14.4c1.3,2.5,3,5.1,3.6,5.9c1.4,1.7,9.9,5.9,13.4,6.7c1.4,0.3,3.3,0.4,4.1,0.3c0.9-0.1,1.7,0,1.9,0.2c0.2,0.2-0.3,1.6-1,3c-2.3,4.8-1,8.4,4.3,11.7c2.9,1.8,4,3.6,5.3,8.2c0.8,2.8,2.4,4.7,4.1,4.7c2.3,0,5.6-3,9.3-8.3c1-1.6,3.1-3.9,4.6-5.1c3.2-2.7,3.5-3.9,2-7.4c-0.6-1.4-1.1-3.2-1.1-3.9c0-3.5-1.8-5.4-9.3-10c-9.3-5.8-10.1-9.1-3.7-15.1c7.7-7.3,9.7-10.3,10.8-16.4c0.3-1.7,0.7-3.1,0.9-3.1c0.1,0,0.4,1,0.6,2.1c0.5,3.6,1.5,5.4,3.5,6.2c1.3,0.6,2,0.6,3.2,0.2c3.7-1.3,5.7-4.1,9.3-13.2c1-2.7,2.3-5.6,2.9-6.4c3.3-5.4-2.2-11.1-14.8-15.2C96,85.8,93,85.5,89.2,86.3z M101.1,94.1c4.8,1.9,9.1,4.4,8.9,5.3c-0.1,0.9-4.6,11.8-5.7,13.9l-0.8,1.6l-0.6-3.2c-1.1-5.8-2.9-8-6.4-8c-3.8,0-5.7,2.7-6.6,9.1c-1,7.1-1.9,8.7-9.7,16c-4.1,3.9-5.9,7.3-5.8,11.3c0,5.2,2.5,8.3,11.8,14.2c5.1,3.3,5.6,3.7,5.3,4.8c-0.1,0.7,0.1,2,0.7,3.3l1,2.1l-1.9,1.8c-1,1-2.9,3.3-4.1,5.1l-2.2,3.2l-1.3-2.8c-1.7-3.5-2.4-4.3-6-6.8c-1.7-1.1-3-2.1-3-2.3s0.5-1.2,1.1-2.2c0.6-1.1,1.2-2.6,1.4-3.3c0.4-1.8-0.5-4.7-2.1-6.6c-1.3-1.5-1.4-1.6-6-1.8c-4.4-0.2-5-0.4-9-2.4l-4.3-2.1l-2.2-4c-1.2-2.2-2.2-4.4-2.3-4.9c0-0.4,1.1-2.9,2.5-5.5c1.9-3.6,2.5-5.1,2.5-6.8c0-4.7-3-6.6-11.8-7.3l-5.8-0.5l1-3.1c0.6-1.7,1.1-3.7,1.1-4.3c0-2.3,0.6-2.6,4.6-2.6c3.5,0,4,0.1,8.9,2.5c6.8,3.2,7.6,3.4,10.5,1.9c1.3-0.7,3.9-1.7,5.9-2.2c6.3-1.9,8.2-3.2,9.9-7.2c0.5-1.2,1.8-3.1,2.9-4.1C88.1,92,93.9,91.3,101.1,94.1z" />
                <path fill="#000000"
                    d="M173.5,93.9c-2.6,1.2-5.2,3.9-6.2,6.4c-0.5,1.1-1,1.6-1.8,1.6c-1.8,0-10.4,2.4-13.1,3.6c-1.4,0.6-3.7,2.1-5.1,3.3c-1.3,1.2-3,2.3-3.7,2.6c-0.8,0.3-3.6,0.3-7.1,0.1c-6.6-0.3-8.8,0.1-10.3,2.1c-0.5,0.7-1,1.7-1,2.3c0,0.6-0.7,2.5-1.5,4.3c-2.2,4.7-2.1,8,0.2,12.5l1.7,3.3l-2.5,1.8c-3.3,2.2-5.2,4.5-5.9,6.8c-0.5,1.6-0.4,2.3,0.5,5.1c1.7,5.2,2.8,6.7,6.2,8.9c4,2.6,6.1,3.3,9.6,3c4.3-0.3,4.7,0.4,4,7.9c-0.3,3.5-0.2,3.9,0.7,4.9c2.1,2.2,5.9,1.9,10.2-1c4.3-2.8,6.4-6.4,9-16c1-3.4,2.3-5.6,3.9-6.2c1-0.4,1.8-0.2,4.6,1.2c4,2,7.5,2.5,11.1,1.5c2.9-0.8,3.2-0.5,2.8,2.4c-0.1,1-0.4,3.4-0.6,5.4c-0.3,4.1,0.1,5.4,3,8.2c1.6,1.6,2,1.8,3.9,1.6c1.9-0.2,2.1-0.1,2.8,1.1c1,2,2.6,2.8,5.6,3.1c2.7,0.3,2.7,0.2,4.5-1.6c1-1.1,2.3-3.2,2.9-4.9c0.6-1.6,1.8-4.1,2.7-5.7c4.7-7.6,5-12.6,1.3-16.8c-2.1-2.3-3.9-3-8.5-2.8c-2.2,0.1-3.8,0-3.9-0.3c-0.1-0.3,1.3-1.3,3.2-2.4c4.1-2.3,7.2-5.6,8.3-8.9c0.7-2,0.7-3.2,0.4-6.5c-0.7-7.1-0.6-8.4,0.7-9.8c0.6-0.7,3.5-2.4,6.3-3.9c8.3-4.3,10.8-6.7,10.8-10.1c0-2.3-2.4-4.7-5.7-5.6c-2.8-0.8-7.9-0.8-20,0.2c-6.9,0.6-11,0-14.4-2.1C179.4,92.6,176.8,92.3,173.5,93.9z M180.2,100.6c4.3,2.9,10.4,3.6,23,2.4c9.1-0.9,13.1-0.7,11.9,0.4c-0.4,0.3-3.1,2-6.1,3.6c-6.1,3.3-8.1,4.9-9.6,8c-0.9,1.9-1,2.5-0.6,6.9c0.8,9.7,0.4,10.7-5.6,14.1c-4.3,2.5-5,3.1-5.9,5c-0.5,1.3-0.5,2,0,4c1.2,4.7,4.6,6.7,9.9,5.8c2.5-0.4,3-0.4,3.8,0.3c1.5,1.3,0.9,4.4-2,9.3c-1.3,2.3-2.8,5.3-3.2,6.6c-0.5,1.3-1,2.3-1.2,2.3c-0.2,0-0.7-0.6-1.1-1.4c-0.9-1.8-3-2.9-5.4-2.9c-3.2,0-3.4-0.8-2-7.4c0.8-3.7,0-6.4-3-9.6l-2.4-2.6l-2.6,1.2c-3.8,1.8-6.3,1.7-10.3-0.4c-3.6-2-6.5-2.1-9.5-0.8c-3.8,1.8-5.9,5.3-8,13.3c-1.3,4.9-2.8,7.5-5,9l-1.4,1l0.3-2.5c0.7-6.9-4.1-12-10.5-11.1c-3.9,0.6-8.1-2.4-9.6-6.7l-1-2.7l1.5-1.2c0.8-0.7,2.4-2,3.7-2.8c2.6-1.8,4.1-4,4.1-6.1c0-0.9-0.8-2.7-1.9-4.5c-2.4-3.9-2.4-5.6-0.5-9.5c0.8-1.6,1.4-3.1,1.4-3.5c0-0.5,1.2-0.7,7-0.6c7.9,0,8.5-0.1,12.5-3.6c3.5-3.1,6.3-4.1,16.6-6.3c4-0.9,5.1-1.6,5.6-4c0.4-2.2,2.3-4.3,4-4.3C177.9,99.4,179.2,100,180.2,100.6z" />
            </g>
        </g>
    </g>
</svg>