<?xml version="1.0" encoding="iso-8859-1"?>
<svg fill="#000000" height="800px" width="800px" version="1.1" id="Layer_1" xmlns="http://www.w3.org/2000/svg" xmlns:xlink="http://www.w3.org/1999/xlink" 
	 viewBox="0 0 512 512" xml:space="preserve">
<g>
	<g>
		<circle cx="256" cy="341.515" r="8.17"/>
	</g>
</g>
<g>
	<g>
		<path d="M502.787,190.563L271.297,5.372C266.966,1.907,261.534,0,256,0c-5.534,0-10.966,1.907-15.298,5.372L9.213,190.563
			C3.357,195.248,0,202.224,0,209.702c0,13.516,10.996,24.511,24.511,24.511c5.534,0,10.966-1.907,15.297-5.372l14.661-11.728
			V503.83c0,4.512,3.657,8.17,8.17,8.17h386.723c4.513,0,8.17-3.658,8.17-8.17V217.114l14.661,11.728
			c4.331,3.464,9.763,5.372,15.297,5.372c13.515,0,24.511-10.995,24.511-24.511C512,202.224,508.643,195.248,502.787,190.563z
			 M318.638,495.66H193.362V295.217h125.277V495.66z M487.489,217.872c-2.356,0-4.068-0.975-5.091-1.792l-97.889-78.305
			c-3.523-2.818-8.664-2.247-11.483,1.277c-2.819,3.523-2.247,8.665,1.277,11.484l66.888,53.507V495.66H334.979V295.217h2.723
			c4.513,0,8.17-3.658,8.17-8.17s-3.657-8.17-8.17-8.17H174.298c-4.513,0-8.17,3.658-8.17,8.17s3.657,8.17,8.17,8.17h2.723V495.66
			H70.809V204.042L256,55.9l92.785,74.223c3.522,2.816,8.665,2.247,11.483-1.277c2.819-3.523,2.247-8.665-1.277-11.484
			l-97.888-78.306c-2.983-2.386-7.224-2.386-10.206,0L29.601,216.08c-1.022,0.817-2.734,1.792-5.091,1.792
			c-4.506,0-8.17-3.665-8.17-8.17c0-2.488,1.123-4.813,3.081-6.379L250.909,18.131c1.023-0.816,2.734-1.791,5.091-1.791
			c2.356,0,4.068,0.975,5.089,1.791l231.489,185.191c1.958,1.567,3.081,3.892,3.081,6.379
			C495.66,214.208,491.995,217.872,487.489,217.872z"/>
	</g>
</g>
<g>
	<g>
		<path d="M294.128,376.374c-4.513,0-8.17,3.658-8.17,8.17v21.787c0,4.512,3.657,8.17,8.17,8.17c4.513,0,8.17-3.658,8.17-8.17
			v-21.787C302.298,380.033,298.641,376.374,294.128,376.374z"/>
	</g>
</g>
<g>
	<g>
		<path d="M256,118.855c-34.539,0-62.638,28.099-62.638,62.638s28.099,62.638,62.638,62.638s62.638-28.099,62.638-62.638
			C318.638,146.954,290.539,118.855,256,118.855z M256,227.791c-25.529,0-46.298-20.769-46.298-46.298s20.769-46.298,46.298-46.298
			s46.298,20.769,46.298,46.298S281.529,227.791,256,227.791z"/>
	</g>
</g>
</svg>