<?xml version="1.0" encoding="utf-8"?>
<!DOCTYPE svg PUBLIC "-//W3C//DTD SVG 1.1//EN" "http://www.w3.org/Graphics/SVG/1.1/DTD/svg11.dtd">
<svg version="1.1" xmlns="http://www.w3.org/2000/svg" xmlns:xlink="http://www.w3.org/1999/xlink" x="0px" y="0px"
    viewBox="0 0 256 256" enable-background="new 0 0 256 256" xml:space="preserve">
    <metadata> Svg Vector Icons : http://www.onlinewebfonts.com/icon </metadata>
    <g>
        <g>
            <g>
                <path fill="#ffffff"
                    d="M118.6,15.8c-20.7,3.5-38.1,18.1-45.3,38.1c-3.9,11-4.3,24.4-0.9,37.7c3.9,15.8,10.9,28.4,29.1,52.7c12.9,17.2,16.8,23.2,19.3,30c0.6,1.4,1.7,3.3,2.5,4.3c1.4,1.6,1.6,1.7,4.8,1.7c2.9,0,3.3-0.1,4.6-1.3c0.7-0.7,1.9-2.7,2.6-4.4c2.9-7.4,6.3-12.7,19.4-30.1c13.1-17.5,19.4-27.3,23.7-37.1c13.6-30.7,9.3-58.6-11.9-77.7C153.8,18.2,135.4,12.9,118.6,15.8z M139,30.7c5.1,1.3,12.3,5,16.7,8.5c9.1,7.3,15.1,18.5,15.9,29.9c1.2,15.3-3.9,31-15.9,49.2c-2.2,3.3-8,11.4-12.9,17.9c-4.9,6.5-10.1,13.7-11.6,15.9c-1.5,2.2-2.8,4-3,4s-1.5-1.8-3-3.9c-1.4-2.2-6.7-9.4-11.7-16.1C99.5,117.6,93.1,107.3,89,96.8c-4.5-11.8-5.8-24.5-3.3-34c4.3-16.9,17.5-29.4,34.7-32.7C125,29.1,134.2,29.5,139,30.7z" />
                <path fill="#ffffff"
                    d="M121.1,46.3c-10.4,2.9-17.9,11-20.2,21.5c-2.8,13.2,5.3,27,18.3,31.5c4.1,1.4,11.2,1.8,15.2,0.7c10.6-2.7,18.4-10.9,20.7-21.4c1.3-6.2,0.5-11.9-2.5-18c-3.1-6.2-8.9-11.3-15.5-13.6C133.4,45.6,124.9,45.3,121.1,46.3z M135.6,57.5c13.3,6.6,13,25.2-0.5,31.5c-2.3,1.1-3.2,1.3-7,1.3s-4.8-0.2-7-1.3c-10.7-5-13.8-18.7-6.1-27.2c3.9-4.3,8.1-6.1,13.9-5.9C132,56,133.1,56.3,135.6,57.5z" />
                <path fill="#ffffff"
                    d="M34.5,106.3c-1.5,0.6-2.7,1.8-3.5,3.3c-0.6,1.2-21,122.3-21,124.8c0,1.9,1.8,4.6,3.7,5.7l1.8,1h112.7h112.8l1.5-1.1c2-1.4,3.2-3,3.5-5c0.4-2.4-20-123.9-21-125.7c-0.5-0.7-1.5-1.9-2.4-2.4c-1.5-1.1-1.8-1.1-16.2-1.1c-13.4,0-14.8,0.1-16.3,0.9c-4.7,2.5-4.8,8.9-0.3,12.3c1.2,0.9,2,1,12.1,1.1c6,0.1,10.8,0.2,10.8,0.4c0,0.1,4,23.9,8.8,53c4.8,29,8.8,52.9,8.8,53s-46,0.2-102.3,0.2c-56.3,0-102.3-0.1-102.3-0.2c0-0.1,4-24,8.8-53c4.9-29,8.8-52.9,8.8-53c0-0.1,4.9-0.3,10.8-0.4c10.1-0.1,10.9-0.2,12.1-1.1c2-1.5,3.1-3.2,3.3-5.4c0.2-1.7,0-2.5-0.9-4.2c-2.1-3.5-2.4-3.6-18.7-3.5C41.7,105.8,35.2,106,34.5,106.3z" />
                <path fill="#ffffff"
                    d="M85.9,150.6c-6.5,4.9-11,12.2-11.9,19.4c-1.7,12.8,6,24.5,21.2,32.1c15.5,7.7,37.3,9.3,55.8,3.9c13-3.8,24.3-12.2,28.7-21.3c1.9-4,2.6-6.8,2.6-11.3s-0.6-7.4-2.6-11.4c-3-6.3-10.5-13.7-13.8-13.7c-3.2,0-6,3.3-5.2,6.3c0.1,0.6,2,2.8,4.1,4.8c2.5,2.4,4.4,4.7,5.4,6.5c1.5,2.7,1.6,3.2,1.6,7.3c0,3.9-0.1,4.7-1.3,6.9c-4.5,8.7-16.9,15.7-31.8,17.9c-5.6,0.9-15.7,0.9-21.3,0c-14.8-2.2-27.2-9.2-31.8-17.9c-1.2-2.2-1.3-3-1.3-6.9c0-4.1,0.1-4.6,1.6-7.3c1.1-1.9,2.8-4.1,5.2-6.3c2-1.9,3.8-4,4.1-4.8c1.1-3.1-1.5-6.6-5-6.6C89.2,148.4,87.9,149,85.9,150.6z" />
            </g>
        </g>
    </g>
</svg>