<svg xmlns="http://www.w3.org/2000/svg" version="1.1" xmlns:xlink="http://www.w3.org/1999/xlink" xmlns:svgjs="http://svgjs.dev/svgjs" width="1440" height="560" preserveAspectRatio="none" viewBox="0 0 1440 560"><g mask="url(&quot;#SvgjsMask1423&quot;)" fill="none"><path d="M1440 0L894.54 0L1440 28.43z" fill="rgba(255, 255, 255, .1)"></path><path d="M894.54 0L1440 28.43L1440 153.66L517.45 0z" fill="rgba(255, 255, 255, .075)"></path><path d="M517.45 0L1440 153.66L1440 179.56L380.96000000000004 0z" fill="rgba(255, 255, 255, .05)"></path><path d="M380.96000000000004 0L1440 179.56L1440 400.65L123.09000000000003 0z" fill="rgba(255, 255, 255, .025)"></path><path d="M0 560L567.47 560L0 316.85z" fill="rgba(0, 0, 0, .1)"></path><path d="M0 316.85L567.47 560L870.9000000000001 560L0 187.69000000000003z" fill="rgba(0, 0, 0, .075)"></path><path d="M0 187.69L870.9000000000001 560L928.0900000000001 560L0 77.87z" fill="rgba(0, 0, 0, .05)"></path><path d="M0 77.87L928.0900000000001 560L1228.8300000000002 560L0 39.760000000000005z" fill="rgba(0, 0, 0, .025)"></path></g><defs><mask id="SvgjsMask1423"><rect width="1440" height="560" fill="#ffffff"></rect></mask></defs></svg>